<?xml version="1.0" encoding="UTF-8" standalone="no"?>
<!DOCTYPE svg PUBLIC "-//W3C//DTD SVG 1.1//EN"
 "http://www.w3.org/Graphics/SVG/1.1/DTD/svg11.dtd">
<!-- Generated by graphviz version 2.28.0 (20110507.0327)
 -->
<!-- Title: controllers_diagram Pages: 1 -->
<svg width="969pt" height="524pt"
 viewBox="0.00 0.00 969.00 524.00" xmlns="http://www.w3.org/2000/svg" xmlns:xlink="http://www.w3.org/1999/xlink">
<g id="graph1" class="graph" transform="scale(1 1) rotate(0) translate(4 520)">
<title>controllers_diagram</title>
<polygon fill="white" stroke="white" points="-4,5 -4,-520 966,-520 966,5 -4,5"/>
<!-- ApplicationController -->
<g id="node1" class="node"><title>ApplicationController</title>
<polyline fill="none" stroke="black" points="12,-174 146,-174 "/>
<path fill="none" stroke="black" d="M146,-174C152,-174 158,-180 158,-186"/>
<polyline fill="none" stroke="black" points="158,-186 158,-330 "/>
<path fill="none" stroke="black" d="M158,-330C158,-336 152,-342 146,-342"/>
<polyline fill="none" stroke="black" points="146,-342 12,-342 "/>
<path fill="none" stroke="black" d="M12,-342C6,-342 0,-336 0,-330"/>
<polyline fill="none" stroke="black" points="0,-330 0,-186 "/>
<path fill="none" stroke="black" d="M0,-186C0,-180 6,-174 12,-174"/>
<text text-anchor="middle" x="79" y="-326.8" font-family="Times New Roman,serif" font-size="14.00">ApplicationController</text>
<polyline fill="none" stroke="black" points="0,-319 158,-319 "/>
<polyline fill="none" stroke="black" points="0,-295 158,-295 "/>
<text text-anchor="start" x="8" y="-279.8" font-family="Times New Roman,serif" font-size="14.00">filter_parameters</text>
<polyline fill="none" stroke="black" points="0,-272 158,-272 "/>
<text text-anchor="start" x="8" y="-256.8" font-family="Times New Roman,serif" font-size="14.00">current_user</text>
<text text-anchor="start" x="8" y="-241.8" font-family="Times New Roman,serif" font-size="14.00">current_user_session</text>
<text text-anchor="start" x="8" y="-226.8" font-family="Times New Roman,serif" font-size="14.00">redirect_back_or_default</text>
<text text-anchor="start" x="8" y="-211.8" font-family="Times New Roman,serif" font-size="14.00">require_no_user</text>
<text text-anchor="start" x="8" y="-196.8" font-family="Times New Roman,serif" font-size="14.00">require_user</text>
<text text-anchor="start" x="8" y="-181.8" font-family="Times New Roman,serif" font-size="14.00">store_location</text>
</g>
<!-- ConceptsController -->
<g id="node2" class="node"><title>ConceptsController</title>
<polyline fill="none" stroke="black" points="188,-129 344,-129 "/>
<path fill="none" stroke="black" d="M344,-129C350,-129 356,-135 356,-141"/>
<polyline fill="none" stroke="black" points="356,-141 356,-375 "/>
<path fill="none" stroke="black" d="M356,-375C356,-381 350,-387 344,-387"/>
<polyline fill="none" stroke="black" points="344,-387 188,-387 "/>
<path fill="none" stroke="black" d="M188,-387C182,-387 176,-381 176,-375"/>
<polyline fill="none" stroke="black" points="176,-375 176,-141 "/>
<path fill="none" stroke="black" d="M176,-141C176,-135 182,-129 188,-129"/>
<text text-anchor="middle" x="266" y="-371.8" font-family="Times New Roman,serif" font-size="14.00">ConceptsController</text>
<polyline fill="none" stroke="black" points="176,-364 356,-364 "/>
<text text-anchor="start" x="184" y="-348.8" font-family="Times New Roman,serif" font-size="14.00">create</text>
<text text-anchor="start" x="184" y="-333.8" font-family="Times New Roman,serif" font-size="14.00">destroy</text>
<text text-anchor="start" x="184" y="-318.8" font-family="Times New Roman,serif" font-size="14.00">edit</text>
<text text-anchor="start" x="184" y="-303.8" font-family="Times New Roman,serif" font-size="14.00">experiment</text>
<text text-anchor="start" x="184" y="-288.8" font-family="Times New Roman,serif" font-size="14.00">graph</text>
<text text-anchor="start" x="184" y="-273.8" font-family="Times New Roman,serif" font-size="14.00">index</text>
<text text-anchor="start" x="184" y="-258.8" font-family="Times New Roman,serif" font-size="14.00">new</text>
<text text-anchor="start" x="184" y="-243.8" font-family="Times New Roman,serif" font-size="14.00">parse_csv</text>
<text text-anchor="start" x="184" y="-228.8" font-family="Times New Roman,serif" font-size="14.00">refresh_meta</text>
<text text-anchor="start" x="184" y="-213.8" font-family="Times New Roman,serif" font-size="14.00">refresh_meta_in_background</text>
<text text-anchor="start" x="184" y="-198.8" font-family="Times New Roman,serif" font-size="14.00">show</text>
<text text-anchor="start" x="184" y="-183.8" font-family="Times New Roman,serif" font-size="14.00">update</text>
<polyline fill="none" stroke="black" points="176,-176 356,-176 "/>
<polyline fill="none" stroke="black" points="176,-152 356,-152 "/>
<text text-anchor="start" x="184" y="-136.8" font-family="Times New Roman,serif" font-size="14.00">refresh_meta_data</text>
</g>
<!-- PagesController -->
<g id="node3" class="node"><title>PagesController</title>
<polyline fill="none" stroke="black" points="386,-211 468,-211 "/>
<path fill="none" stroke="black" d="M468,-211C474,-211 480,-217 480,-223"/>
<polyline fill="none" stroke="black" points="480,-223 480,-293 "/>
<path fill="none" stroke="black" d="M480,-293C480,-299 474,-305 468,-305"/>
<polyline fill="none" stroke="black" points="468,-305 386,-305 "/>
<path fill="none" stroke="black" d="M386,-305C380,-305 374,-299 374,-293"/>
<polyline fill="none" stroke="black" points="374,-293 374,-223 "/>
<path fill="none" stroke="black" d="M374,-223C374,-217 380,-211 386,-211"/>
<text text-anchor="middle" x="427" y="-289.8" font-family="Times New Roman,serif" font-size="14.00">PagesController</text>
<polyline fill="none" stroke="black" points="374,-282 480,-282 "/>
<text text-anchor="start" x="382" y="-266.8" font-family="Times New Roman,serif" font-size="14.00">get_photo</text>
<polyline fill="none" stroke="black" points="374,-259 480,-259 "/>
<polyline fill="none" stroke="black" points="374,-235 480,-235 "/>
</g>
<!-- ServicesController -->
<g id="node4" class="node"><title>ServicesController</title>
<polyline fill="none" stroke="black" points="510.5,-1 659.5,-1 "/>
<path fill="none" stroke="black" d="M659.5,-1C665.5,-1 671.5,-7 671.5,-13"/>
<polyline fill="none" stroke="black" points="671.5,-13 671.5,-503 "/>
<path fill="none" stroke="black" d="M671.5,-503C671.5,-509 665.5,-515 659.5,-515"/>
<polyline fill="none" stroke="black" points="659.5,-515 510.5,-515 "/>
<path fill="none" stroke="black" d="M510.5,-515C504.5,-515 498.5,-509 498.5,-503"/>
<polyline fill="none" stroke="black" points="498.5,-503 498.5,-13 "/>
<path fill="none" stroke="black" d="M498.5,-13C498.5,-7 504.5,-1 510.5,-1"/>
<text text-anchor="middle" x="585" y="-499.8" font-family="Times New Roman,serif" font-size="14.00">ServicesController</text>
<polyline fill="none" stroke="black" points="498.5,-492 671.5,-492 "/>
<text text-anchor="start" x="506.5" y="-476.8" font-family="Times New Roman,serif" font-size="14.00">bad_concepts</text>
<text text-anchor="start" x="506.5" y="-461.8" font-family="Times New Roman,serif" font-size="14.00">create</text>
<text text-anchor="start" x="506.5" y="-446.8" font-family="Times New Roman,serif" font-size="14.00">destroy</text>
<text text-anchor="start" x="506.5" y="-431.8" font-family="Times New Roman,serif" font-size="14.00">edit</text>
<text text-anchor="start" x="506.5" y="-416.8" font-family="Times New Roman,serif" font-size="14.00">exact_match</text>
<text text-anchor="start" x="506.5" y="-401.8" font-family="Times New Roman,serif" font-size="14.00">exact_match_2</text>
<text text-anchor="start" x="506.5" y="-386.8" font-family="Times New Roman,serif" font-size="14.00">exact_match_3</text>
<text text-anchor="start" x="506.5" y="-371.8" font-family="Times New Roman,serif" font-size="14.00">experiment</text>
<text text-anchor="start" x="506.5" y="-356.8" font-family="Times New Roman,serif" font-size="14.00">index</text>
<text text-anchor="start" x="506.5" y="-341.8" font-family="Times New Roman,serif" font-size="14.00">new</text>
<text text-anchor="start" x="506.5" y="-326.8" font-family="Times New Roman,serif" font-size="14.00">onto_find</text>
<text text-anchor="start" x="506.5" y="-311.8" font-family="Times New Roman,serif" font-size="14.00">parse_csv</text>
<text text-anchor="start" x="506.5" y="-296.8" font-family="Times New Roman,serif" font-size="14.00">plugin</text>
<text text-anchor="start" x="506.5" y="-281.8" font-family="Times New Roman,serif" font-size="14.00">plugin_2</text>
<text text-anchor="start" x="506.5" y="-266.8" font-family="Times New Roman,serif" font-size="14.00">plugin_3</text>
<text text-anchor="start" x="506.5" y="-251.8" font-family="Times New Roman,serif" font-size="14.00">plugin_math_services</text>
<text text-anchor="start" x="506.5" y="-236.8" font-family="Times New Roman,serif" font-size="14.00">render_services</text>
<text text-anchor="start" x="506.5" y="-221.8" font-family="Times New Roman,serif" font-size="14.00">run_all</text>
<text text-anchor="start" x="506.5" y="-206.8" font-family="Times New Roman,serif" font-size="14.00">search</text>
<text text-anchor="start" x="506.5" y="-191.8" font-family="Times New Roman,serif" font-size="14.00">service_data</text>
<text text-anchor="start" x="506.5" y="-176.8" font-family="Times New Roman,serif" font-size="14.00">show</text>
<text text-anchor="start" x="506.5" y="-161.8" font-family="Times New Roman,serif" font-size="14.00">simple_find</text>
<text text-anchor="start" x="506.5" y="-146.8" font-family="Times New Roman,serif" font-size="14.00">testuj_exact</text>
<text text-anchor="start" x="506.5" y="-131.8" font-family="Times New Roman,serif" font-size="14.00">testuj_plugin</text>
<text text-anchor="start" x="506.5" y="-116.8" font-family="Times New Roman,serif" font-size="14.00">testuj_wielokrotnie_filtry</text>
<text text-anchor="start" x="506.5" y="-101.8" font-family="Times New Roman,serif" font-size="14.00">testuj_wybrane</text>
<text text-anchor="start" x="506.5" y="-86.8" font-family="Times New Roman,serif" font-size="14.00">update</text>
<text text-anchor="start" x="506.5" y="-71.8" font-family="Times New Roman,serif" font-size="14.00">wypelnij_baze_exact_match</text>
<text text-anchor="start" x="506.5" y="-56.8" font-family="Times New Roman,serif" font-size="14.00">wypelnij_baze_plugin</text>
<polyline fill="none" stroke="black" points="498.5,-49 671.5,-49 "/>
<polyline fill="none" stroke="black" points="498.5,-25 671.5,-25 "/>
</g>
<!-- UsersController -->
<g id="node5" class="node"><title>UsersController</title>
<polyline fill="none" stroke="black" points="701.5,-188.5 782.5,-188.5 "/>
<path fill="none" stroke="black" d="M782.5,-188.5C788.5,-188.5 794.5,-194.5 794.5,-200.5"/>
<polyline fill="none" stroke="black" points="794.5,-200.5 794.5,-315.5 "/>
<path fill="none" stroke="black" d="M794.5,-315.5C794.5,-321.5 788.5,-327.5 782.5,-327.5"/>
<polyline fill="none" stroke="black" points="782.5,-327.5 701.5,-327.5 "/>
<path fill="none" stroke="black" d="M701.5,-327.5C695.5,-327.5 689.5,-321.5 689.5,-315.5"/>
<polyline fill="none" stroke="black" points="689.5,-315.5 689.5,-200.5 "/>
<path fill="none" stroke="black" d="M689.5,-200.5C689.5,-194.5 695.5,-188.5 701.5,-188.5"/>
<text text-anchor="middle" x="742" y="-312.3" font-family="Times New Roman,serif" font-size="14.00">UsersController</text>
<polyline fill="none" stroke="black" points="689.5,-304.5 794.5,-304.5 "/>
<text text-anchor="start" x="697.5" y="-289.3" font-family="Times New Roman,serif" font-size="14.00">create</text>
<text text-anchor="start" x="697.5" y="-274.3" font-family="Times New Roman,serif" font-size="14.00">edit</text>
<text text-anchor="start" x="697.5" y="-259.3" font-family="Times New Roman,serif" font-size="14.00">new</text>
<text text-anchor="start" x="697.5" y="-244.3" font-family="Times New Roman,serif" font-size="14.00">update</text>
<polyline fill="none" stroke="black" points="689.5,-236.5 794.5,-236.5 "/>
<polyline fill="none" stroke="black" points="689.5,-212.5 794.5,-212.5 "/>
</g>
<!-- UserSessionsController -->
<g id="node6" class="node"><title>UserSessionsController</title>
<polyline fill="none" stroke="black" points="824.5,-196 949.5,-196 "/>
<path fill="none" stroke="black" d="M949.5,-196C955.5,-196 961.5,-202 961.5,-208"/>
<polyline fill="none" stroke="black" points="961.5,-208 961.5,-308 "/>
<path fill="none" stroke="black" d="M961.5,-308C961.5,-314 955.5,-320 949.5,-320"/>
<polyline fill="none" stroke="black" points="949.5,-320 824.5,-320 "/>
<path fill="none" stroke="black" d="M824.5,-320C818.5,-320 812.5,-314 812.5,-308"/>
<polyline fill="none" stroke="black" points="812.5,-308 812.5,-208 "/>
<path fill="none" stroke="black" d="M812.5,-208C812.5,-202 818.5,-196 824.5,-196"/>
<text text-anchor="middle" x="887" y="-304.8" font-family="Times New Roman,serif" font-size="14.00">UserSessionsController</text>
<polyline fill="none" stroke="black" points="812.5,-297 961.5,-297 "/>
<text text-anchor="start" x="820.5" y="-281.8" font-family="Times New Roman,serif" font-size="14.00">create</text>
<text text-anchor="start" x="820.5" y="-266.8" font-family="Times New Roman,serif" font-size="14.00">destroy</text>
<text text-anchor="start" x="820.5" y="-251.8" font-family="Times New Roman,serif" font-size="14.00">new</text>
<polyline fill="none" stroke="black" points="812.5,-244 961.5,-244 "/>
<polyline fill="none" stroke="black" points="812.5,-220 961.5,-220 "/>
</g>
</g>
</svg>
